<svg width="60" height="60" viewBox="0 0 60 60" fill="none" xmlns="http://www.w3.org/2000/svg">
<circle cx="30.1828" cy="29.926" r="29.8221" fill="#38CB89"/>
<path fill-rule="evenodd" clip-rule="evenodd" d="M31.0013 20.0825H29.3607C29.2149 20.0825 29.142 20.1554 29.142 20.3012V28.8871H20.9935C20.8477 28.8871 20.7748 28.9601 20.7748 29.1059V30.7465C20.7748 30.8924 20.8477 30.9653 20.9935 30.9653H29.142V39.5512C29.142 39.697 29.2149 39.77 29.3607 39.77H31.0013C31.1472 39.77 31.2201 39.697 31.2201 39.5512V30.9653H39.3685C39.5144 30.9653 39.5873 30.8924 39.5873 30.7465V29.1059C39.5873 28.9601 39.5144 28.8871 39.3685 28.8871H31.2201V20.3012C31.2201 20.1554 31.1472 20.0825 31.0013 20.0825Z" fill="white"/>
</svg>
